<svg xmlns="http://www.w3.org/2000/svg" xmlns:xlink="http://www.w3.org/1999/xlink" width="192" height="74" viewBox="0 0 192 74"><defs><style>.a{clip-path:url(#b);}.b{fill:#fff;}.c{fill:#51a7de;}.d{fill:#4c7cbd;}</style><clipPath id="b"><rect width="192" height="74"/></clipPath></defs><g id="a" class="a"><g transform="translate(2 12)"><g transform="translate(77.099 5.958)"><path class="b" d="M63.627,41.814a7.069,7.069,0,0,0-6.4-3.408,9.085,9.085,0,0,0-7.1,3.22,12.668,12.668,0,0,0-2.9,8.638,12.816,12.816,0,0,0,3.037,8.779,9.35,9.35,0,0,0,7.283,3.313A6.826,6.826,0,0,0,64,58.2l.654,3.5h4.529V29.675H63.627Zm0,9.851a5.572,5.572,0,0,1-1.633,4.109,5,5,0,0,1-7.61-.352,7.8,7.8,0,0,1-1.589-5.112,7.709,7.709,0,0,1,1.565-5.066,4.861,4.861,0,0,1,3.9-1.89,5.052,5.052,0,0,1,3.735,1.4,5.705,5.705,0,0,1,1.633,3.97Z" transform="translate(-47.238 -28.459)"/><path class="b" d="M70.789,38.406A7.384,7.384,0,0,0,63.973,42.7V29.675H58.465V61.7h5.508V51.2a9.71,9.71,0,0,1,1.658-5.884,4.675,4.675,0,0,1,3.76-1.96A4.463,4.463,0,0,1,72.8,44.638a5.351,5.351,0,0,1,1.213,3.8V61.7H79.52V48.442A11.6,11.6,0,0,0,77.4,41.159Q75.272,38.406,70.789,38.406Z" transform="translate(-31.055 -28.459)"/><rect class="b" width="5.51" height="22.739" transform="translate(53.742 10.505)"/><path class="b" d="M72.391,29.177a3.462,3.462,0,0,0-2.522.864,3.142,3.142,0,0,0-.886,2.358,3.142,3.142,0,0,0,.886,2.358,4.085,4.085,0,0,0,5.02,0,3.509,3.509,0,0,0,0-4.717A3.483,3.483,0,0,0,72.391,29.177Z" transform="translate(-15.894 -29.177)"/><path class="b" d="M88.037,44.362l-5.369-2.007q-2.758-.795-2.756-2.429a2.053,2.053,0,0,1,1-1.658,4.779,4.779,0,0,1,2.825-.723,5.056,5.056,0,0,1,2.8.654,2.275,2.275,0,0,1,1.074,1.772H92.8a6.227,6.227,0,0,0-2.451-4.807q-2.358-1.915-6.724-1.914A12.251,12.251,0,0,0,76.667,35a5.365,5.365,0,0,0-2.593,4.646q0,4.343,5.51,6.255l4.949,1.775a6.875,6.875,0,0,1,2.2,1.028,1.917,1.917,0,0,1,.7,1.587,2.177,2.177,0,0,1-1.143,1.8,5.114,5.114,0,0,1-2.92.771q-4.622,0-4.714-3.223H73.515a6.593,6.593,0,0,0,2.8,5.581A12.186,12.186,0,0,0,83.6,57.2a11.521,11.521,0,0,0,7.283-2.146A6.015,6.015,0,0,0,93.547,50.2a4.748,4.748,0,0,0-1.426-3.572A10.69,10.69,0,0,0,88.037,44.362Z" transform="translate(-9.362 -23.305)"/><path class="b" d="M89.027,53.822V52.7a2.687,2.687,0,0,1,.864-2.031,6.572,6.572,0,0,1,2.825-1.331l4.9-1.213a12.433,12.433,0,0,0,5.952-2.917,7.336,7.336,0,0,0,1.843-5.347,7.2,7.2,0,0,0-2.847-5.789,11.419,11.419,0,0,0-7.517-2.429,13.222,13.222,0,0,0-7.844,2.1,7.707,7.707,0,0,0-3.174,6.443h6.116q.465-3.735,5.183-3.735a5.044,5.044,0,0,1,3.362,1.028,3.229,3.229,0,0,1,1.213,2.568,3.52,3.52,0,0,1-1.05,2.59,7.942,7.942,0,0,1-3.621,1.7L90.8,45.418a10.5,10.5,0,0,0-5.51,2.893,9.01,9.01,0,0,0-1.775,5.977v4.578H105.6V53.822Z" transform="translate(5.055 -25.621)"/></g><path class="c" d="M104.165,45.1a2.179,2.179,0,0,0-1.541,0L92,49.052l6.319,2.358,5.07-1.889,5.513,2.057,6.319-2.358Z" transform="translate(-71.962 -35.16)"/><path class="d" d="M37.342,25.232a2.179,2.179,0,0,1-.771-.139L8.412,14.6a2.209,2.209,0,0,1,0-4.14L36.127.142a2.212,2.212,0,0,1,1.543,0L65.826,10.629a2.209,2.209,0,0,1,0,4.14L38.114,25.093A2.179,2.179,0,0,1,37.342,25.232Zm-21.829-12.7,21.829,8.132L58.725,12.7,36.9,4.578Z" transform="translate(-5.464 -0.003)"/><path class="c" d="M60.4,87.213l-4.428-1.645-6.328,2.36,3.656,1.36L31.92,97.254,10.086,89.117l3.656-1.362L7.424,85.4,2.987,87.056A2.179,2.179,0,0,0,1.85,88.063a1.636,1.636,0,0,0-.436,1.118V99.5a3.033,3.033,0,1,0,3.316,0V91.834l7.347,2.737v13.51c0,5.794,10.174,8.433,19.626,8.433a48.659,48.659,0,0,0,6.519-.436c.588-.074,1.168-.168,1.743-.27.872-.155,1.743-.342,2.554-.558q.654-.161,1.273-.355a20.331,20.331,0,0,0,2.946-1.142c.218-.107.436-.218.641-.331,2.3-1.264,3.794-2.924,3.94-5.012q.013-.168.013-.34V95.118a2.178,2.178,0,0,0-.033-.362l9.115-3.395a2.214,2.214,0,0,0,0-4.14Zm-13.51,20.894c-.052.5-1.268,1.44-3.606,2.273a7.23,7.23,0,0,1,3.606-4.667Zm0-3.85a8.533,8.533,0,0,0-5.012,6.576c-.778.218-1.639.425-2.591.6A11.387,11.387,0,0,1,46.9,101.2Zm0-4.883a13.13,13.13,0,0,0-9.354,12.344,43.741,43.741,0,0,1-5.855.373c-9.936,0-15.163-2.959-15.211-4V96.208l14.662,5.463a2.242,2.242,0,0,0,1.545,0l14.213-5.293Z" transform="translate(-0.039 -66.792)"/></g></g></svg>