<svg xmlns="http://www.w3.org/2000/svg" xmlns:xlink="http://www.w3.org/1999/xlink" width="48" height="48" viewBox="0 0 48 48"><defs><clipPath id="b"><rect width="48" height="48"/></clipPath></defs><g id="a" clip-path="url(#b)"><g transform="translate(-1338 -941)"><path d="M23,0A23,23,0,1,1,0,23,23,23,0,0,1,23,0Z" transform="translate(1339 942)" fill="#ff8f02"/><g transform="translate(818.869 634)"><path d="M558.631,427.25v3.939h7.687V427.25Z" transform="translate(-19.792 -87.448)" fill="#fff"/><path d="M551.208,326.885a8.551,8.551,0,1,0-13.339,7.733,2.229,2.229,0,0,1,.97,1.843v1.756h7.687v-1.755a2.252,2.252,0,0,1,.986-1.855A8.54,8.54,0,0,0,551.208,326.885Z" fill="#fff"/><path d="M578.631,419" transform="translate(-35.949 -80.784)" fill="#fff" stroke="#000" stroke-linecap="round" stroke-linejoin="round" stroke-width="3"/><path d="M578.631,419" transform="translate(-35.949 -80.784)" fill="#fff" stroke="#000" stroke-linecap="round" stroke-linejoin="round" stroke-width="3"/><line x2="6.678" transform="translate(539.343 327.84)" fill="none" stroke="#ff8f02" stroke-linejoin="round" stroke-width="2"/><line y1="10.377" transform="translate(542.682 327.84)" fill="none" stroke="#ff8f02" stroke-linejoin="round" stroke-width="2"/><line x2="7.687" transform="translate(538.839 341.771)" fill="none" stroke="#ff8f02" stroke-miterlimit="10" stroke-width="1"/></g></g></g></svg>